<svg xmlns="http://www.w3.org/2000/svg" width="32.098" height="28.404" viewBox="0 0 32.098 28.404"><defs><style>.a{fill:#fa9343;}</style></defs><g transform="translate(0.022 -0.006)"><g transform="translate(-0.023 0.006)"><path class="a" d="M18.065,1.176l13.7,23.718a2.342,2.342,0,0,1-2.048,3.516H2.341A2.342,2.342,0,0,1,.293,24.894L14.009,1.176a2.342,2.342,0,0,1,4.055,0Zm-1.27,17.881V9.191a.758.758,0,1,0-1.516,0v9.865a.758.758,0,0,0,1.516,0Zm0,4.226v-1.6a.758.758,0,0,0-1.516,0v1.6a.758.758,0,0,0,1.516,0Z" transform="translate(0.023 -0.006)"/></g></g></svg>