<svg xmlns="http://www.w3.org/2000/svg" viewBox="0 0 97.51 83.52"><g id="Layer_2" data-name="Layer 2"><g id="Layer_1-2" data-name="Layer 1"><path d="M49.3,55.12,38.39,25.31s15.17-20.62,17-23,3.64-3.68,6.37,0L83,58.11c1.52,3.34-1.82,3.34-5.77,2.73S49.3,55.12,49.3,55.12Z"/><path d="M43.21,76.71a2.61,2.61,0,0,1-1.37,3.43L34.46,83.3A2.61,2.61,0,0,1,31,81.94L26.55,71.51l-2.94-6.85-1.38.53-.82.31a4.5,4.5,0,0,1-5.81-2.59l-.27-.71-3.05,1.48A5.76,5.76,0,0,1,4.59,61l-4-8.19a5.76,5.76,0,0,1,2.64-7.69L7.9,42.78l-.09-.23a4.5,4.5,0,0,1,2.59-5.81l23.41-9,11,28.77-5.45,2.08L36,59.92l3.19,7.43Z"/><path d="M39.19,67.35,36,59.92l3.37-1.29.67.89A5.76,5.76,0,0,1,39.19,67.35Z"/><path d="M72.67,15.42a2.16,2.16,0,0,1-1.59-3.63l8.17-8.85a2.16,2.16,0,1,1,3.18,2.93l-8.17,8.85A2.14,2.14,0,0,1,72.67,15.42Z"/><path d="M80.44,28.6a2.16,2.16,0,0,1-.86-4.14l11.85-5.12a2.16,2.16,0,0,1,1.71,4L81.29,28.42A2.16,2.16,0,0,1,80.44,28.6Z"/><path d="M95.35,44.92h-.2l-12-1.09a2.16,2.16,0,1,1,.39-4.3l12,1.09a2.16,2.16,0,0,1-.19,4.31Z"/></g></g></svg>