<svg xmlns="http://www.w3.org/2000/svg" xmlns:xlink="http://www.w3.org/1999/xlink" width="108.972" height="98.513" viewBox="0 0 108.972 98.513"><defs><style>.a{fill:#5878f5;}.b{filter:url(#k);}.c{filter:url(#i);}.d{filter:url(#g);}.e{filter:url(#e);}.f{filter:url(#c);}.g{filter:url(#a);}</style><filter id="a" x="28.73" y="0" width="69.673" height="81.765" filterUnits="userSpaceOnUse"><feOffset dx="5" dy="5" input="SourceAlpha"/><feGaussianBlur stdDeviation="6" result="b"/><feFlood flood-color="#6182ff" flood-opacity="0.322"/><feComposite operator="in" in2="b"/><feComposite in="SourceGraphic"/></filter><filter id="c" x="0" y="20.756" width="69.536" height="77.757" filterUnits="userSpaceOnUse"><feOffset dx="5" dy="5" input="SourceAlpha"/><feGaussianBlur stdDeviation="6" result="d"/><feFlood flood-color="#6182ff" flood-opacity="0.322"/><feComposite operator="in" in2="d"/><feComposite in="SourceGraphic"/></filter><filter id="e" x="26.941" y="43.878" width="39.89" height="42.527" filterUnits="userSpaceOnUse"><feOffset dx="5" dy="5" input="SourceAlpha"/><feGaussianBlur stdDeviation="6" result="f"/><feFlood flood-color="#6182ff" flood-opacity="0.322"/><feComposite operator="in" in2="f"/><feComposite in="SourceGraphic"/></filter><filter id="g" x="52.768" y="1.67" width="45.356" height="45.864" filterUnits="userSpaceOnUse"><feOffset dx="5" dy="5" input="SourceAlpha"/><feGaussianBlur stdDeviation="6" result="h"/><feFlood flood-color="#6182ff" flood-opacity="0.322"/><feComposite operator="in" in2="h"/><feComposite in="SourceGraphic"/></filter><filter id="i" x="58.592" y="14.336" width="48.11" height="43.063" filterUnits="userSpaceOnUse"><feOffset dx="5" dy="5" input="SourceAlpha"/><feGaussianBlur stdDeviation="6" result="j"/><feFlood flood-color="#6182ff" flood-opacity="0.322"/><feComposite operator="in" in2="j"/><feComposite in="SourceGraphic"/></filter><filter id="k" x="60.711" y="29.569" width="48.26" height="40.054" filterUnits="userSpaceOnUse"><feOffset dx="5" dy="5" input="SourceAlpha"/><feGaussianBlur stdDeviation="6" result="l"/><feFlood flood-color="#6182ff" flood-opacity="0.322"/><feComposite operator="in" in2="l"/><feComposite in="SourceGraphic"/></filter></defs><g transform="translate(13 13)"><g class="g" transform="matrix(1, 0, 0, 1, -13, -13)"><path class="a" d="M46.557,41.263,38.39,18.949S49.745,3.514,51.115,1.732s2.725-2.755,4.768,0L71.782,43.5C72.92,46,70.42,46,67.463,45.544S46.557,41.263,46.557,41.263Z" transform="translate(3.34 12.99)"/></g><g class="f" transform="matrix(1, 0, 0, 1, -13, -13)"><path class="a" d="M32.347,64.4a1.954,1.954,0,0,1-1.025,2.568L25.8,69.329a1.954,1.954,0,0,1-2.59-1.018L19.876,60.5l-2.2-5.128-1.033.4L16.028,56a3.368,3.368,0,0,1-4.349-1.939l-.2-.531L9.194,54.643a4.312,4.312,0,0,1-5.756-2.006L.444,46.506A4.312,4.312,0,0,1,2.42,40.75L5.916,39l-.067-.172a3.368,3.368,0,0,1,1.939-4.349L25.31,27.74l8.234,21.536-4.08,1.557-2.515,1,2.388,5.562Z" transform="translate(12.99 6.02)"/></g><g class="e" transform="matrix(1, 0, 0, 1, -13, -13)"><path class="a" d="M38.388,65.157,36,59.6l2.523-.966.5.666A4.312,4.312,0,0,1,38.388,65.157Z" transform="translate(3.94 -1.75)"/></g><g class="d" transform="matrix(1, 0, 0, 1, -13, -13)"><path class="a" d="M72.125,12.107a1.617,1.617,0,0,1-1.19-2.717L77.05,2.765a1.618,1.618,0,1,1,2.38,2.193l-6.116,6.625a1.6,1.6,0,0,1-1.19.524Z" transform="translate(-4.73 12.43)"/></g><g class="c" transform="matrix(1, 0, 0, 1, -13, -13)"><path class="a" d="M79.9,26.227a1.617,1.617,0,0,1-.644-3.1l8.87-3.833A1.628,1.628,0,1,1,89.4,22.29l-8.87,3.8a1.617,1.617,0,0,1-.636.135Z" transform="translate(-6.69 8.17)"/></g><g class="b" transform="matrix(1, 0, 0, 1, -13, -13)"><path class="a" d="M91.77,43.56h-.15l-8.982-.816a1.617,1.617,0,1,1,.292-3.219l8.982.816a1.617,1.617,0,0,1-.142,3.226Z" transform="translate(-7.4 3.06)"/></g></g></svg>