<svg xmlns="http://www.w3.org/2000/svg" width="60.886" height="36.369" viewBox="0 0 60.886 36.369"><defs><style>.a{fill:#b8b9bb;}</style></defs><rect class="a" width="11.959" height="11.959" rx="5.01" transform="translate(0 10.192)"/><rect class="a" width="11.959" height="11.959" rx="5.01" transform="translate(16.041 10.192)"/><rect class="a" width="11.959" height="11.959" rx="5.01" transform="translate(0 24.41)"/><rect class="a" width="11.959" height="11.959" rx="5.98" transform="translate(16.041 24.41)"/><path class="a" d="M114.118,16.236a8.118,8.118,0,1,1,8.118-8.118A8.118,8.118,0,0,1,114.118,16.236Zm0-14.6a6.483,6.483,0,1,0,6.476,6.483,6.483,6.483,0,0,0-6.476-6.483Z" transform="translate(-66.886)"/><path class="a" d="M92.62,62.837,91,62.549c1.351-7.605,7.089-13.129,13.653-13.129s12.288,5.535,13.653,13.129l-1.613.288c-1.21-6.827-6.273-11.779-12.026-11.779S93.83,56.01,92.62,62.837Z" transform="translate(-57.421 -31.184)"/></svg>