<svg xmlns="http://www.w3.org/2000/svg" width="50" height="55" viewBox="0 0 50 55"><defs><style>.a{fill:#b8b9bb;}</style></defs><path class="a" d="M45.831,6.875H41.669V4.586A4.392,4.392,0,0,0,37.5,0H4.169a3.98,3.98,0,0,0-2.95,1.341A4.822,4.822,0,0,0,0,4.586V13.75a4.392,4.392,0,0,0,4.169,4.586H37.5a4.392,4.392,0,0,0,4.169-4.586V11.461h4.163V22.914H27.081c-4.6,0-8.335,4.107-8.331,9.171v4.579l-2.081,2.3V55H25V38.961l-2.081-2.3V32.086a4.822,4.822,0,0,1,1.217-3.242A3.981,3.981,0,0,1,27.081,27.5h18.75A4.392,4.392,0,0,0,50,22.914V11.461a4.822,4.822,0,0,0-1.219-3.245A3.98,3.98,0,0,0,45.831,6.875Z" transform="translate(0 0)"/></svg>