<svg xmlns="http://www.w3.org/2000/svg" xmlns:xlink="http://www.w3.org/1999/xlink" width="94" height="103.286" viewBox="0 0 94 103.286"><defs><style>.a{fill:#5878f5;}.b{filter:url(#g);}.c{filter:url(#e);}.d{filter:url(#c);}.e{filter:url(#a);}</style><filter id="a" x="5.046" y="0.59" width="88.954" height="102.536" filterUnits="userSpaceOnUse"><feOffset dx="5" dy="5" input="SourceAlpha"/><feGaussianBlur stdDeviation="6" result="b"/><feFlood flood-color="#6182ff" flood-opacity="0.322"/><feComposite operator="in" in2="b"/><feComposite in="SourceGraphic"/></filter><filter id="c" x="0" y="0" width="47.897" height="103.286" filterUnits="userSpaceOnUse"><feOffset dx="5" dy="5" input="SourceAlpha"/><feGaussianBlur stdDeviation="6" result="d"/><feFlood flood-color="#6182ff" flood-opacity="0.322"/><feComposite operator="in" in2="d"/><feComposite in="SourceGraphic"/></filter><filter id="e" x="23.816" y="21.188" width="52.34" height="52.34" filterUnits="userSpaceOnUse"><feOffset dx="5" dy="5" input="SourceAlpha"/><feGaussianBlur stdDeviation="6" result="f"/><feFlood flood-color="#6182ff" flood-opacity="0.322"/><feComposite operator="in" in2="f"/><feComposite in="SourceGraphic"/></filter><filter id="g" x="22.642" y="40.585" width="54.136" height="42.569" filterUnits="userSpaceOnUse"><feOffset dx="5" dy="5" input="SourceAlpha"/><feGaussianBlur stdDeviation="6" result="h"/><feFlood flood-color="#6182ff" flood-opacity="0.322"/><feComposite operator="in" in2="h"/><feComposite in="SourceGraphic"/></filter></defs><g transform="translate(13 13)"><g transform="translate(0 0)"><g class="e" transform="matrix(1, 0, 0, 1, -13, -13)"><path class="a" d="M55.447,67.906H13.218a1.508,1.508,0,1,1,0-3.016H55.447c4.253,0,5.8-1.883,6.2-2.534V7.282c0-2.456-3.521-2.7-3.852-2.715L22.577,4.386a1.508,1.508,0,1,1,0-3.016h0l35.291.185c2.361.086,6.8,1.379,6.8,5.727V63.015l-.108.271C64.483,63.472,62.626,67.906,55.447,67.906Z" transform="translate(6.34 12.22)"/></g><g class="d" transform="matrix(1, 0, 0, 1, -13, -13)"><path class="a" d="M6.007,67.286A5.886,5.886,0,0,1,.121,61.408L0,5.9A5.89,5.89,0,0,1,5.878,0h0a5.886,5.886,0,0,1,5.9,5.878L11.9,61.383a5.89,5.89,0,0,1-5.865,5.9Z" transform="translate(13 13)"/></g><g class="c" transform="matrix(1, 0, 0, 1, -13, -13)"><circle class="a" cx="8.17" cy="8.17" r="8.17" transform="translate(36.82 34.19)"/></g><g class="b" transform="matrix(1, 0, 0, 1, -13, -13)"><path class="a" d="M54.271,100.754a1.724,1.724,0,0,1-1.241-2.922,11.923,11.923,0,0,1,17.167,0,1.723,1.723,0,1,1-2.478,2.4,8.743,8.743,0,0,0-5.955-2.586,8.653,8.653,0,0,0-6.257,2.585A1.724,1.724,0,0,1,54.271,100.754Z" transform="translate(-16.9 -40.6)"/></g></g></g></svg>