<svg xmlns="http://www.w3.org/2000/svg" viewBox="0 0 62.46 72.46"><g id="bcbcb7f0-aa89-41a1-88e1-723387bb6fa9" data-name="Layer 2"><g id="af3da1c0-5646-4578-b0e2-2ae48a262968" data-name="Layer 1"><path d="M52.54,72.29H7.06a1.63,1.63,0,0,1,0-3.25H52.54c4.58,0,6.24-2,6.68-2.73V7c0-2.64-3.8-2.9-4.15-2.92l-37.93-.2a1.62,1.62,0,1,1,0-3.24h0l38,.19c2.53.09,7.3,1.49,7.3,6.17V67l-.11.29C62.27,67.52,60.27,72.29,52.54,72.29Z"/><path d="M6.47,72.46A6.34,6.34,0,0,1,.13,66.13L0,6.36A6.34,6.34,0,0,1,6.33,0h0a6.33,6.33,0,0,1,6.34,6.33l.13,59.77a6.34,6.34,0,0,1-6.33,6.36Z"/><circle cx="34.45" cy="31.62" r="8.8"/><path d="M26.24,50.78a1.85,1.85,0,0,1-1.33-3.15,13.12,13.12,0,0,1,9.47-3.92,13,13,0,0,1,9,3.92,1.86,1.86,0,1,1-2.67,2.59,9.4,9.4,0,0,0-6.41-2.8,9.26,9.26,0,0,0-6.73,2.8A1.89,1.89,0,0,1,26.24,50.78Z"/></g></g></svg>