<svg xmlns="http://www.w3.org/2000/svg" width="52.406" height="52.4" viewBox="0 0 52.406 52.4"><defs><style>.a{fill:#fae157;}.b{fill:#6be8a6;}.c{fill:#69a8ff;}.d{fill:#98c9fc;}.e{fill:none;}</style></defs><g transform="translate(0.02 0)"><g transform="translate(-0.019 0)"><path class="a" d="M26.33,36a2.557,2.557,0,0,1,0,.277s-.059,2.954-4.263,3.076-5.251-1.044-8.118,1.028c-1.614,2.1.365,1.979-1.558,4.145-.913,1.614-5.264,1.49-11.531,1.362A26.234,26.234,0,0,1,9.679,18.79h0l.274.016a17.245,17.245,0,0,0,0,4.447c.365,1.331,1.374,3.229,5.148,2.836s4.7,1.337,4.83,4.232c.642,2.774,1.4,1.677,4.051,2.319A3.22,3.22,0,0,1,26.33,36Z" transform="translate(0.019 -12.934)"/><path class="b" d="M109.726,105.159a26.209,26.209,0,0,1-25.2,19.515V111.632l3.428-.122a3.014,3.014,0,0,0,2.369-1.247c.957-1.371.767-3.057,1.247-3.7a2.287,2.287,0,0,1,.486-.555A4.2,4.2,0,0,1,94.9,105Z" transform="translate(-58.181 -72.274)"/><path class="c" d="M110.545,26.2a26.094,26.094,0,0,1-.86,6.682l-14.844-.162A4.2,4.2,0,0,0,92,33.739a2.287,2.287,0,0,0-.486.555c-.477.623-.287,2.325-1.247,3.7A3.014,3.014,0,0,1,87.9,39.236l-3.428.122V0a26.144,26.144,0,0,1,20.322,9.842l-.228.016H97.413a3.148,3.148,0,0,0-3.048,2.986c-.184,2.9,2.01,3.6,3.534,3.565,2.253.184,2.97,2.761,3.472,5.12a1.384,1.384,0,0,0,.935.935c1.169.57,7.853.452,8.037.449h0A26.461,26.461,0,0,1,110.545,26.2Z" transform="translate(-58.139 0)"/><path class="d" d="M47.765,0V23.062a3.215,3.215,0,0,0-2.356-3.347c-2.652-.642-3.428.455-4.051-2.319-.122-2.9-1.035-4.631-4.815-4.232s-4.787-1.505-5.148-2.845a17.379,17.379,0,0,1,0-4.447l-.274-.016A26.057,26.057,0,0,1,47.622,0Z" transform="translate(-21.416 0)"/><path class="d" d="M21.815,93.563c-.153,2.711,2.954,3.534,3.839,3.291,1.558.041,2.474,1.889,2.493,2.347l.134,4.117h-.134A26.2,26.2,0,0,1,2.82,83.868c6.264.128,10.615.252,11.531-1.362,1.92-2.182-.059-2.044,1.558-4.145,2.864-2.072,3.9-.916,8.1-1.038s4.263-3.076,4.263-3.076a2.555,2.555,0,0,0,0-.277V90.275H25.315A3.478,3.478,0,0,0,21.833,93.3C21.824,93.395,21.821,93.479,21.815,93.563Z" transform="translate(-1.935 -50.918)"/><line class="e" x1="0.003" transform="translate(0.882 32.95)"/><path class="b" d="M132.164,44.67c-.184,0-6.856.122-8.037-.449a1.384,1.384,0,0,1-.935-.935c-.5-2.359-1.219-4.936-3.472-5.12C118.2,38.2,116,37.5,116.186,34.6a3.162,3.162,0,0,1,3.051-2.995H126.4l.228-.016A26,26,0,0,1,132.164,44.67Z" transform="translate(-79.964 -21.745)"/><path class="a" d="M70.235,126.29v13.042l-.134-4.117a3.024,3.024,0,0,0-2.493-2.347c-.885.243-3.992-.58-3.839-3.291a1.107,1.107,0,0,1,.019-.249,3.478,3.478,0,0,1,3.478-3.039Z" transform="translate(-43.885 -86.932)"/></g></g></svg>