<svg xmlns="http://www.w3.org/2000/svg" width="46.731" height="41.6" viewBox="0 0 46.731 41.6"><defs><style>.a{fill:#b8b9bb;}</style></defs><g transform="translate(0 -0.002)"><g transform="translate(0 0.002)"><path class="a" d="M13.169,15.216H.234a13.2,13.2,0,0,1-.022-4.831C2.061.491,14.9-3.291,23.246,3.568c11.584-7.519,20.059-2.177,23.021,7a7.12,7.12,0,0,1,.251.947h-16.7l-5.041,9.594L17.023,4.819Z" transform="translate(0 -0.002)"/><path class="a" d="M47.865,28.669C47.713,36.547,38.632,43.4,38.632,43.4L24.38,56.462,10.271,43.411S4.287,38.8,2,32.371H15.962L18.43,25.74l7.388,15.507L32.4,28.669Z" transform="translate(-1.134 -14.862)"/></g></g></svg>