<svg xmlns="http://www.w3.org/2000/svg" xmlns:xlink="http://www.w3.org/1999/xlink" width="45.961" height="41.692" viewBox="0 0 45.961 41.692"><defs><style>.a{fill:#4f4f4f;}.b{filter:url(#c);}.c{filter:url(#a);}</style><filter id="a" x="0" y="0" width="28.852" height="40.282" filterUnits="userSpaceOnUse"><feOffset dy="3" input="SourceAlpha"/><feGaussianBlur stdDeviation="1.5" result="b"/><feFlood flood-opacity="0.161"/><feComposite operator="in" in2="b"/><feComposite in="SourceGraphic"/></filter><filter id="c" x="18.481" y="0.299" width="27.481" height="41.393" filterUnits="userSpaceOnUse"><feOffset dy="3" input="SourceAlpha"/><feGaussianBlur stdDeviation="1.5" result="d"/><feFlood flood-opacity="0.161"/><feComposite operator="in" in2="d"/><feComposite in="SourceGraphic"/></filter></defs><g transform="translate(4.501 1.501)"><g transform="translate(-0.001 -0.001)"><g class="c" transform="matrix(1, 0, 0, 1, -4.5, -1.5)"><path class="a" d="M15.676,1.684S8.308-3.514,1.883,4.35A6.9,6.9,0,0,0,.817,6.138C-2.277,13.809,4.4,18.975,4.4,18.975L16.843,31.281l3.008-10.8L15.063,21.5l2.8-9.637-4.238,1.025Z" transform="translate(4.5 1.5)"/></g><g class="b" transform="matrix(1, 0, 0, 1, -4.5, -1.5)"><path class="a" d="M80.908,1.875s8.74-3.246,13.184,4.974c3.489,6.456-1.586,11.892-3.92,13.923-1.085.946-2.166,1.913-3.184,2.919L76.8,33.636,84.043,16.98l-4.647.539,3.759-9.081-4.382.342Z" transform="translate(-53.82 0.56)"/></g></g></g></svg>