<svg xmlns="http://www.w3.org/2000/svg" width="45.82" height="44.539" viewBox="0 0 45.82 44.539"><defs><style>.a{fill:#859eff;}</style></defs><g transform="translate(0 0)"><path class="a" d="M37.8,44.554H32.158a3.036,3.036,0,0,1-3.031-3.036v-8a1.462,1.462,0,0,0-.2-.751,6.877,6.877,0,0,0-11.492-.736,2.091,2.091,0,0,0-.409,1.331l.234,7.8a3.095,3.095,0,0,1-3.1,3.2H9.72c-3.7,0-4.3-2.252-4.386-2.7a1.828,1.828,0,0,1-.024-.273L4.9,25.376a4.628,4.628,0,0,1-4.464-2.1,2.462,2.462,0,0,1,.848-3.358c.112-.1.224-.19.331-.3l19.008-18.6a3.519,3.519,0,0,1,4.927,0h0l19.5,18.842a1.774,1.774,0,0,1,.331.429,2.924,2.924,0,0,1,.268,2.754c-.663,1.4-2.339,1.711-3.826,1.988-.341.068-.809.156-1.131.244l.278,15.757a3.412,3.412,0,0,1-2.924,3.5A1.653,1.653,0,0,1,37.8,44.554ZM23.059,26.482a9.754,9.754,0,0,1,8.285,4.849,4.25,4.25,0,0,1,.595,2.188v8a.239.239,0,0,0,.239.239H37.7a.614.614,0,0,0,.487-.7l-.317-16.327a1.735,1.735,0,0,1,.132-.716c.487-1.218,1.925-1.462,3.295-1.74a9.011,9.011,0,0,0,1.725-.439l-.044-.093L23.58,3.02a.736.736,0,0,0-1.028,0L3.544,21.623c-.156.151-.317.288-.487.424l-.063.054a2.305,2.305,0,0,0,1.867.487,2.578,2.578,0,0,1,2.783,2.5l.434,16.083c.112.146.546.424,1.623.424h4.459a.307.307,0,0,0,.307-.317l-.234-7.8a4.874,4.874,0,0,1,.975-3.109,9.694,9.694,0,0,1,7.852-3.889ZM8.1,41.313Z" transform="translate(-0.05 -0.015)"/></g></svg>