<svg xmlns="http://www.w3.org/2000/svg" width="43.245" height="39.8" viewBox="0 0 43.245 39.8"><defs><style>.a{fill:#d9dce1;}.b{fill:#4478ef;}.c{fill:#6a92f0;}</style></defs><path class="a" d="M40.295,63.413,19.67,63.34l.087,21.705s-.223,1.376,1.08,1.376,21.632.113,21.632.113V63.413A17.162,17.162,0,0,0,40.295,63.413Z" transform="translate(-14.513 -46.734)"/><path class="b" d="M98.7,63.413,98.63,84.786s.336,1.675,1.266,1.675,9.865.037,9.865.037,1.311-.524,1.311-1.34V63.34S98.758,63.358,98.7,63.413Z" transform="translate(-72.772 -46.734)"/><path class="c" d="M98.48,63.023l5.028,7.446,12.4-.037-4.989-7.522Z" transform="translate(-72.662 -46.417)"/><path class="b" d="M25.913,63.2h-21L0,70.515l21,.113Z" transform="translate(0 -46.631)"/><path class="b" d="M89.7,0,83.15,11.355h4.019L87.1,16.569l5.92.073.037-5.249h3.314Z" transform="translate(-61.351)"/><path class="a" d="M75.246,9.52,70.37,18.046l2.493.037v5.471l4.952.039-.076-5.548,2.459-.039Z" transform="translate(-51.921 -7.024)"/></svg>