<svg xmlns="http://www.w3.org/2000/svg" width="30.597" height="38.165" viewBox="0 0 30.597 38.165"><defs><style>.a{fill:#f17344;}</style></defs><g transform="translate(-10 11)"><g transform="translate(10 -11)"><path class="a" d="M30.6,55a3.6,3.6,0,0,1-2.419,3.407,39.8,39.8,0,0,1-25.758,0A3.6,3.6,0,0,1,0,55V43.6A3.629,3.629,0,0,1,2.137,40.3a31.96,31.96,0,0,1,13.351-2.794A31.9,31.9,0,0,1,28.464,40.3,3.629,3.629,0,0,1,30.6,43.6ZM13.855,48.726l-1.177,3.5c-.2.633.347,1.351,2.472,1.351s3.194-.431,3.024-1.294l-1.238-3.552a2.4,2.4,0,0,0-1.52-4.286C13.137,44.44,12.129,47.6,13.855,48.726Z" transform="translate(0 -22.383)"/><path class="a" d="M17.6,12.391V8.706c0-1.419,1.919-4.6,5.806-4.6a5.577,5.577,0,0,1,5.7,4.488v3.8l4.141.46a25.121,25.121,0,0,0-.577-6.4A10.151,10.151,0,0,0,23.127,0c-4.794,0-8.133,3.952-9.085,6.484a17.289,17.289,0,0,0-.573,6.367Z" transform="translate(-7.994)"/></g></g></svg>