<svg xmlns="http://www.w3.org/2000/svg" width="55.807" height="58.46" viewBox="0 0 55.807 58.46"><defs><style>.a{fill:#b8b9bb;}</style></defs><path class="a" d="M57.911.851C56.1-.981,52.864.451,45.14,2.314c-7.6,1.838-18.418,9.079-23.084,15.525a.751.751,0,0,1-.625.313,32.987,32.987,0,0,0-3.6,0,7.9,7.9,0,0,0-4.065,1.876c-1.132.932-3.127,3.264-3.752,3.858s-1.132,1,0,1.4,6.542,2.6,6.542,2.6a41.517,41.517,0,0,0-1.595,4.627c-.469,1.876-.625,2.932.625,3.752s6.836,6.878,7.7,7.809,1.933.331,3.265,0c3.383-1.069,4.666-1.4,4.666-1.4s2.264,5.327,2.5,6.059.732,1.532,1.8.331,2.8-3.326,3.865-4.377a8.215,8.215,0,0,0,1.795-4.058,27.8,27.8,0,0,0-.263-3.051.806.806,0,0,1,.319-.763c2.045-1.532,11.6-9.241,15.335-21.884C59.925,1.92,59.493,2.414,57.911.851ZM33.7,29.388A3.983,3.983,0,1,1,37.679,25.4,3.983,3.983,0,0,1,33.7,29.388Zm8.687-7.622A5.065,5.065,0,1,1,47.448,16.7a5.065,5.065,0,0,1-5.066,5.065Z" transform="translate(-3.301 -0.002)"/><path class="a" d="M17.115,74.764c-2.272,3.091-5.363,3.5-7.906,3.64a15.617,15.617,0,0,0-6.944,2.749c-.413.549-.645.787-1.2.645a.645.645,0,0,1-.426-.439A11.5,11.5,0,0,1,.4,74.906a13.185,13.185,0,0,1,4.169-6.073.142.142,0,0,0-.058-.258,5.624,5.624,0,0,0-2.736-.342c-.7.181-2.272,0-1.652-.9,4.673-7.906,8.455-6.254,11.068-4.331.678.465.691.568.245.871a2.9,2.9,0,0,0-.271.194C9.79,65.187,8.848,67.852,8.88,69.917a.355.355,0,0,0,.316.349,7.745,7.745,0,0,0,5.641-2.1c.826-.826.691-1.033,1.168-.278C16.012,67.884,19.174,71.944,17.115,74.764Z" transform="translate(0.019 -23.379)"/></svg>