<svg xmlns="http://www.w3.org/2000/svg" width="130.245" height="105.501" viewBox="0 0 130.245 105.501"><defs><style>.a{fill:#6384fe;}</style></defs><g transform="translate(-0.003)"><g transform="translate(0.003 0)"><g transform="translate(47.769 6.759)"><path class="a" d="M80.749,53.763a22.781,22.781,0,1,1,22.773-22.779A22.781,22.781,0,0,1,80.749,53.763Zm0-41.441A18.66,18.66,0,1,0,99.4,30.979,18.66,18.66,0,0,0,80.749,12.321Z" transform="translate(-57.96 -8.2)"/><path class="a" d="M83.242,116.1c-5.868,0-11.481-1.9-14.959-5.127a7.3,7.3,0,0,1-2.2-4.22c-3.75-25.122,1.731-37.914,5.333-43.362a5.522,5.522,0,0,1,5.448-2.4,30.248,30.248,0,0,0,11.185-.536,5.489,5.489,0,0,1,5.769,2.225c6.594,9.891,6.8,35.952,6.7,43.683a6.2,6.2,0,0,1-2.374,4.78,24.018,24.018,0,0,1-14.9,4.954ZM75.989,64.226a2.234,2.234,0,0,0-1.83.989h0c-2.687,4.039-8.539,16.13-4.813,41.054a3.874,3.874,0,0,0,1.187,2.283c5.465,5.077,17.844,6.206,25.6.049a2.893,2.893,0,0,0,1.129-2.234c.19-15.512-1.319-34.617-6.14-41.845a2.2,2.2,0,0,0-2.316-.824,33.018,33.018,0,0,1-12.479.577,2.25,2.25,0,0,0-.338-.049Z" transform="translate(-59.166 -17.361)"/></g><g transform="translate(25.309 19.847)"><path class="a" d="M44.224,50.142A13.031,13.031,0,1,1,57.272,37.1,13.031,13.031,0,0,1,44.224,50.142Zm0-21.949a8.91,8.91,0,1,0,6.311,2.6,8.918,8.918,0,0,0-6.311-2.6Z" transform="translate(-30.798 -24.08)"/><path class="a" d="M44.293,97.109a23.078,23.078,0,0,1-10.22-2.2,4.616,4.616,0,0,1-2.473-3.1c-3.05-13.369,2.514-28.081,5.044-33.793A4.475,4.475,0,0,1,41.82,55.5a16.515,16.515,0,0,0,7.723-.635,4.344,4.344,0,0,1,4.484,1.426c12.058,14.317,7.978,30.422,6.437,35.013a4.632,4.632,0,0,1-2.547,2.778,34.436,34.436,0,0,1-13.624,3.025Zm-3.552-37.6a.346.346,0,0,0-.33.2h0c-2.365,5.324-7.575,19.023-4.789,31.18a.511.511,0,0,0,.272.33c2.547,1.261,9.627,3.692,20.391-.931a.47.47,0,0,0,.264-.3c1.368-4.121,4.986-18.355-5.671-31.056a.239.239,0,0,0-.223-.091c-2.176.618-6.338,1.517-9.816.668Z" transform="translate(-30.71 -29.466)"/></g><g transform="translate(0 13.253)"><path class="a" d="M16.49,42.9a13.41,13.41,0,1,1,2.39-.214,13.855,13.855,0,0,1-2.39.214Zm0-23.531a10.451,10.451,0,0,0-1.813.165,10.113,10.113,0,1,0,11.762,8.151h0a10.13,10.13,0,0,0-9.94-8.316Z" transform="translate(-0.545 -16.079)"/><path class="a" d="M14.07,83.89c-3.594,0-7.121-.453-9.635-1.648a6.592,6.592,0,0,1-4.1-4.451C-1.31,70.57,3.462,53.954,7.179,48.407a2.786,2.786,0,0,1,3.882-.742h0c1.69,1.154,5.16,2.654,9.437-.223a2.811,2.811,0,0,1,2.126-.453A2.778,2.778,0,0,1,24.4,48.2c2.308,3.544,9.487,16.311,4.789,31.633a2.835,2.835,0,0,1-1.368,1.648C25.428,82.793,19.666,83.89,14.07,83.89ZM9.644,50.674C6.4,55.973,2.152,70.958,3.553,77.049A3.513,3.513,0,0,0,5.8,79.29c5.217,2.382,16.855,1.055,20.292-.585,3.989-13.311-1.854-24.512-4.187-28.246a11.16,11.16,0,0,1-12.264.214Z" transform="translate(-0.003 -21.504)"/></g><path class="a" d="M54.849,35.911,53.357,30.5A8.9,8.9,0,0,0,37.87,27.248l-3.058,3.783-.593-4.83a4.031,4.031,0,0,1,0-.445V12.066a12.066,12.066,0,1,1,24.133,0v13.69a11.893,11.893,0,0,1-1.113,5.061Zm-10.1-16.072A13.03,13.03,0,0,1,54.205,23.9V12.066a7.945,7.945,0,1,0-15.891,0v9.478a13.014,13.014,0,0,1,6.437-1.706Z" transform="translate(-6.017 0)"/><path class="a" d="M55.316,34.645A10.55,10.55,0,0,0,36.953,30.8l-.643-.511a11.374,11.374,0,0,1,19.781,4.121Z" transform="translate(-6.385 -4.586)"/><path class="a" d="M75.413,10.1,72.94,9.658c.527-2.918,3.033-8.448,8.712-8.448A9.3,9.3,0,0,1,90.57,8.1l-2.39.635c-.058-.206-1.442-5.052-6.528-5.052S75.462,9.84,75.413,10.1Z" transform="translate(-12.824 -0.213)"/><path class="a" d="M117.036,30.52A11.385,11.385,0,0,1,105.2,19.393c0-4.616,4.78-9.553,12.709-9.553,5.638,0,12.363,2.019,12.363,11.654C130.264,26.811,124.816,30.52,117.036,30.52Zm.874-17.383c-5.811,0-9.413,3.247-9.413,6.256s2.316,7.83,8.539,7.83c5.844,0,9.932-2.357,9.932-5.728C126.967,17.6,125.937,13.137,117.909,13.137Z" transform="translate(-18.495 -1.73)"/><path class="a" d="M144,37.127H140.97c-6.379,0-8.44-7.22-8.44-10.715,0-3.19,3.017-7.912,9.487-7.912,4.649,0,8.242,1.393,10.113,3.915,1.047,1.4,2.052,3.874.907,7.69C151.091,36.526,147.959,37.127,144,37.127ZM141.984,20.94c-4.574,0-7.014,3.157-7.014,5.44,0,1.739,1.014,8.242,5.967,8.242h1.7c4.517.074,6.379.107,8-5.283.676-2.275.5-4.121-.519-5.506C148.767,22,145.8,20.94,141.984,20.94Z" transform="translate(-23.3 -3.252)"/><path class="a" d="M143.059,77.584a19.4,19.4,0,0,1-8.4-1.764l1.434-2.967c4,1.937,8.7,1.442,10.649,1.121,3.2-12.528-1.294-32.779-1.343-32.969l3.223-.725c.2.907,4.945,22.344,1.022,35.6l-.264.89-.907.231A23.309,23.309,0,0,1,143.059,77.584Z" transform="translate(-23.674 -7.081)"/><path class="a" d="M121.861,56.909c-4.945,0-11.481-1.17-11.481-11.3,0-8.852,5.926-12.009,11.481-12.009,8.184,0,12.882,4.121,12.882,11.3C134.744,53.15,128.068,56.909,121.861,56.909Zm0-20.012c-2.473,0-8.184.824-8.184,8.712,0,6.693,3,8,8.184,8,4.418,0,9.586-2.283,9.586-8.712C131.447,39.592,128.2,36.9,121.861,36.9Z" transform="translate(-19.406 -5.906)"/><path class="a" d="M118.193,99.336a19.237,19.237,0,0,1-9.462-2.234c-1.879-1.063-3.14-3-3.742-5.769C103.02,82.4,108.352,66.78,112,61.711a3.931,3.931,0,0,1,4.121-1.525,15.85,15.85,0,0,0,7.3,0h0a3.758,3.758,0,0,1,3.973,1.484c1.97,2.8,4.294,6.726,4.121,9.478-.1,1.871-.387,9.833-.824,23A3.882,3.882,0,0,1,128,97.762a34.222,34.222,0,0,1-9.808,1.574ZM115.2,63.392a.643.643,0,0,0-.527.264C111.1,68.6,106.6,83.314,108.2,90.641a5.144,5.144,0,0,0,2.151,3.585c5.769,3.247,13.575,1.352,16.666.387a.6.6,0,0,0,.42-.552c.437-13.187.725-21.166.824-23.078.074-1.352-1.286-4.2-3.552-7.418a.478.478,0,0,0-.5-.173,19.13,19.13,0,0,1-8.852,0Z" transform="translate(-18.384 -10.56)"/></g></g></svg>