<svg xmlns="http://www.w3.org/2000/svg" width="62.264" height="62.679" viewBox="0 0 62.264 62.679"><defs><style>.a{fill:#b8b9bb;}</style></defs><line y1="18.123" x2="17.886" transform="translate(1.38 13.605)"/><path class="a" d="M1.367,48.228a1.37,1.37,0,0,1-.98-2.336l17.9-18.123A1.374,1.374,0,1,1,20.242,29.7L2.338,47.821a1.343,1.343,0,0,1-.971.407Z" transform="translate(0.013 -15.13)"/><path class="a" d="M52.574,15.08A1.37,1.37,0,0,1,51.2,13.71V9.265a1.343,1.343,0,0,1,.358-.931L58.814.506a1.374,1.374,0,0,1,2.014,1.866L53.944,9.8V13.71a1.37,1.37,0,0,1-1.37,1.37Z" transform="translate(-28.277 -0.105)"/><path class="a" d="M53.613,27.877a1.37,1.37,0,0,1-.976-2.336l12.748-12.86A1.377,1.377,0,1,1,67.35,14.61L54.588,27.474a1.374,1.374,0,0,1-.976.4Z" transform="translate(-28.85 -6.825)"/><path class="a" d="M13.91,61.9a1.343,1.343,0,0,1-.953-.4,1.374,1.374,0,0,1-.027-1.943l11.9-12.215V42.287a1.374,1.374,0,1,1,2.744,0V47.9a1.343,1.343,0,0,1-.389.953L14.9,61.5a1.365,1.365,0,0,1-.985.4Z" transform="translate(-6.922 -22.604)"/><path class="a" d="M47.473,49.26a1.37,1.37,0,0,1-.971-2.341L67.843,25.591a1.37,1.37,0,0,1,1.934,1.929L48.444,48.866a1.379,1.379,0,0,1-.971.394Z" transform="translate(-25.459 -14)"/><path class="a" d="M26.183,85.629A1.37,1.37,0,0,1,25.2,83.3l4.4-4.507V74.027a1.374,1.374,0,1,1,2.744,0v5.317a1.383,1.383,0,0,1-.39.963l-4.794,4.923A1.388,1.388,0,0,1,26.183,85.629Z" transform="translate(-13.698 -40.138)"/><path class="a" d="M38.855,84.7a1.374,1.374,0,0,1-.971-2.345L58.523,61.724a1.374,1.374,0,1,1,1.943,1.938L39.826,84.3a1.365,1.365,0,0,1-.971.4Z" transform="translate(-20.699 -33.89)"/><path class="a" d="M97.244,51.06a1.37,1.37,0,0,1-1.374-1.374V44.659a1.343,1.343,0,0,1,.38-.949l5.371-5.613A1.374,1.374,0,0,1,103.6,40L98.614,45.21v4.476a1.37,1.37,0,0,1-1.37,1.374Z" transform="translate(-52.953 -20.885)"/><path class="a" d="M90.956,67.977a1.37,1.37,0,0,1-1-2.328l13.679-14.484a1.374,1.374,0,0,1,2,1.884l-13.679,14.5a1.374,1.374,0,0,1-1,.43Z" transform="translate(-49.471 -28.098)"/><path class="a" d="M53.617,102.375a1.37,1.37,0,0,1-1-2.305L63.589,88.3V83.231a1.374,1.374,0,0,1,2.744,0v5.613a1.37,1.37,0,0,1-.372.935L54.62,101.941a1.343,1.343,0,0,1-1,.434Z" transform="translate(-28.854 -45.308)"/><path class="a" d="M66.319,106.038a1.374,1.374,0,0,1-1-2.3l18.038-18.9V79.7a1.374,1.374,0,0,1,2.744,0v5.685a1.343,1.343,0,0,1-.38.949L67.3,105.612a1.37,1.37,0,0,1-.985.425Z" transform="translate(-35.877 -43.358)"/><path class="a" d="M119.968,72.4a1.374,1.374,0,0,1-1.007-2.305l6.432-6.956A1.372,1.372,0,0,1,127.408,65l-6.432,6.956a1.343,1.343,0,0,1-1.007.443Z" transform="translate(-65.508 -34.68)"/></svg>