<svg xmlns="http://www.w3.org/2000/svg" width="22.429" height="37.69" viewBox="0 0 22.429 37.69"><defs><style>.a{fill:#f17344;}</style></defs><g transform="translate(-0.002 -0.013)"><g transform="translate(0.002 0.013)"><path class="a" d="M22.173,20.255,4.35,37.522A.626.626,0,0,1,3.3,36.927L7.114,20.769a.651.651,0,0,0-.538-.8l-6.064-.83a.589.589,0,0,1-.338-1L17.884.206a.651.651,0,0,1,1.1.6L15.245,17.485a.648.648,0,0,0,.573.789l5.851.542a.839.839,0,0,1,.5,1.44Z" transform="translate(-0.002 -0.013)"/></g></g></svg>