<svg xmlns="http://www.w3.org/2000/svg" viewBox="0 0 82.72 57.7"><defs><style>.cls-1{fill:#bfd9eb;}.cls-2{fill:#e4eff7;}.cls-3{fill:none;stroke:#396182;stroke-linecap:round;stroke-linejoin:round;stroke-width:2px;}</style></defs><title>cloud</title><g id="Layer_2" data-name="Layer 2"><g id="cloud"><path class="cls-1" d="M81.68,42.53a15.32,15.32,0,0,1-.92,6.22c-1.29,3.71-6.66,8-11.63,7.94-17.48-.17-35-.06-52.44-.06a9.05,9.05,0,0,1-2.33,0C6,54.3,1.21,48.7,1,40.89a2.44,2.44,0,0,0,0-.27h.62s4,12,10,11a27.22,27.22,0,0,0,11-5l6,1a25.39,25.39,0,0,0,16-2c2-1,4.45-2.37,7.06-4h.94s0,6,7,7,21-6,21-6Z"/><path class="cls-1" d="M67.72,30.21l.83.19c3.65,1,7.25,1.69,10,4.9a12.56,12.56,0,0,1,3.16,7.23l-1.06.08s-14,7-21,6-7-7-7-7h-.94C59.1,36.93,67.45,30.3,67,25.74L68,25.67c0,.31,0,.62.06.94A13.09,13.09,0,0,1,67.72,30.21Z"/><path class="cls-2" d="M67,25.74c.5,4.56-7.85,11.19-15.27,15.86-2.61,1.64-5.1,3-7.06,4a25.39,25.39,0,0,1-16,2l-6-1a27.22,27.22,0,0,1-11,5c-6,1-10-11-10-11H1a15.75,15.75,0,0,1,12.78-16,4,4,0,0,0,3.54-3.54c3.36-15,18.21-23.36,32.85-18.88C59.61,5.1,67.2,13.75,68,25.67Z"/><path class="cls-3" d="M65.63,36.52c.64-2.14,1.57-4.13,2.09-6.31a13.09,13.09,0,0,0,.38-3.6c0-.32,0-.63-.06-.94C67.2,13.75,59.61,5.1,50.17,2.21,35.53-2.27,20.68,6.07,17.32,21.09a4,4,0,0,1-3.54,3.54A15.75,15.75,0,0,0,1,40.62a2.44,2.44,0,0,1,0,.27C1.21,48.7,6,54.3,14.36,56.6a9.05,9.05,0,0,0,2.33,0c17.48,0,35-.11,52.44.06,5,.05,10.34-4.23,11.63-7.94a15.32,15.32,0,0,0,.92-6.22,12.56,12.56,0,0,0-3.16-7.23c-2.72-3.21-6.32-3.95-10-4.9"/></g></g></svg>