<svg xmlns="http://www.w3.org/2000/svg" viewBox="0 0 95.22 67"><defs><style>.cls-1{fill:#e4eff7;}.cls-2{fill:#b8d2e0;}.cls-3,.cls-4{fill:none;}.cls-4{stroke:#335b77;stroke-miterlimit:10;stroke-width:6px;}</style></defs><title>cloud</title><g id="Layer_2" data-name="Layer 2"><g id="Layer_3" data-name="Layer 3"><path class="cls-1" d="M74.8,34h2s15.77,3.5,15.41,13.1L87.8,50a90.74,90.74,0,0,1-16,6c-8,2-9-9-9-9l-1.69-2.44A19.35,19.35,0,0,0,69.8,31l2-5,2-.48A35.68,35.68,0,0,1,74.8,34Z"/><path class="cls-2" d="M87.8,50l4.41-2.9c-.08,2.27-1.08,4.9-3.41,7.9-7,9-12,9-12,9h-58S4.25,61.09,3.08,47.2L5.8,47s10,12,16,8l9-6s18.68,3.2,30.31-4.44L62.8,47s1,11,9,9A90.74,90.74,0,0,0,87.8,50Z"/><path class="cls-1" d="M73.81,25.52l-2,.48-2,5a19.35,19.35,0,0,1-8.69,13.56C49.48,52.2,30.8,49,30.8,49l-9,6c-6,4-16-8-16-8l-2.72.2A25.56,25.56,0,0,1,3.8,39c7-13,15-13,15-13s5-23,25-23C60.35,3,70.73,12.58,73.81,25.52Z"/><path class="cls-3" d="M5.8,47s10,12,16,8l9-6s18.68,3.2,30.31-4.44A19.35,19.35,0,0,0,69.8,31l2-5"/><path class="cls-4" d="M76.8,34s15.77,3.5,15.41,13.1c-.08,2.27-1.08,4.9-3.41,7.9-7,9-12,9-12,9h-58S4.25,61.09,3.08,47.2A25.56,25.56,0,0,1,3.8,39c7-13,15-13,15-13s5-23,25-23c16.55,0,26.93,9.58,30,22.52a35.68,35.68,0,0,1,1,8.48c0,13-2,7-2,7"/><path class="cls-3" d="M61.11,44.56,62.8,47s1,11,9,9a90.74,90.74,0,0,0,16-6l4.41-2.9h0"/></g></g></svg>