<svg xmlns="http://www.w3.org/2000/svg" viewBox="0 0 340.05 367.03"><defs><style>.cls-1{fill:#e4eff7;}.cls-2{fill:#b8d2e0;}.cls-3{fill:#697b91;}.cls-4{fill:#f7ecaa;}.cls-5{fill:#eadd94;}.cls-6{fill:#909b9e;}.cls-7{fill:#e67c89;}.cls-8{fill:#fa96a2;}.cls-10,.cls-11,.cls-14,.cls-9{fill:none;}.cls-10,.cls-11,.cls-9{stroke:#335b77;stroke-miterlimit:10;}.cls-9{stroke-width:4px;}.cls-10{stroke-width:3px;}.cls-11{stroke-width:6px;}.cls-12{fill:#335b77;}.cls-13{fill:#fcbdc4;}</style></defs><title>rocket_cloud</title><g id="Layer_2" data-name="Layer 2"><g id="Layer_3" data-name="Layer 3"><path class="cls-1" d="M319.64,153.5h2s15.77,3.5,15.41,13.1l-4.41,2.9a90.74,90.74,0,0,1-16,6c-8,2-9-9-9-9L306,164.06a19.35,19.35,0,0,0,8.69-13.56l2-5,2-.48A35.68,35.68,0,0,1,319.64,153.5Z"/><path class="cls-2" d="M332.64,169.5l4.41-2.9c-.08,2.27-1.08,4.9-3.41,7.9-7,9-12,9-12,9h-58s-14.55-2.91-15.72-16.8l2.72-.2s10,12,16,8l9-6s18.68,3.2,30.31-4.44l1.69,2.44s1,11,9,9A90.74,90.74,0,0,0,332.64,169.5Z"/><path class="cls-1" d="M318.65,145l-2,.48-2,5A19.35,19.35,0,0,1,306,164.06c-11.63,7.64-30.31,4.44-30.31,4.44l-9,6c-6,4-16-8-16-8l-2.72.2a25.56,25.56,0,0,1,.72-8.2c7-13,15-13,15-13s5-23,25-23C305.19,122.5,315.57,132.08,318.65,145Z"/><path class="cls-1" d="M248.64,202.5c20,17,9,34,9,34h-40.5V200a32.21,32.21,0,0,0-1.07-11.14c-1.41-4.59-4.46-8.86-10.93-8.86h-.48l0-.51v-77l.79-.62a105.75,105.75,0,0,1,9.21,11.62c9,13,5,41,5,52S228.64,185.5,248.64,202.5Z"/><polygon class="cls-3" points="217.14 239 227.14 251 201.28 251 207.14 239 217.14 239"/><path class="cls-4" d="M222.14,257a249.83,249.83,0,0,1-.18,27.58l-1.32-.08s-15,32-19,36S184.4,298,184,297.27v0A400.93,400.93,0,0,1,180.14,254h42Z"/><path class="cls-5" d="M220.64,284.5l1.32.08c-1.2,21.71-5.3,52.67-17.82,79.42,0,0-13.16-19.43-20.13-66.73.39.77,13.69,27.17,17.63,23.23S220.64,284.5,220.64,284.5Z"/><path class="cls-2" d="M216.07,188.86A32.21,32.21,0,0,1,217.14,200v36.5h-10V195c0-8.5,6.5-6.5,6.5-6.5Z"/><polygon class="cls-6" points="207.14 239 201.28 251 177.14 251 183.14 239 207.14 239"/><path class="cls-2" d="M205.43,101.88l-.79.62v77l0,.51a11.38,11.38,0,0,0-4.14.89l-.38-.9V96.71A64.08,64.08,0,0,1,205.43,101.88Z"/><path class="cls-2" d="M200.14,180l.38.9c-5.43,2.33-7.71,8.69-8.68,13.64l-.2,0V49.5h4q.26.77.48,1.5c5,16,4,40,4,40v89Z"/><path class="cls-3" d="M173.36,3.07c6.79,2.47,17.17,30.3,22.3,46.43h-34v-2c-7,0,8-44,8-44L170,1.7A10,10,0,0,1,173.36,3.07Z"/><path class="cls-1" d="M191.64,194.5l.2,0a37.63,37.63,0,0,0-.7,6.46v35.5h-46V201a36.26,36.26,0,0,0-2.39-12.21c-1.34-3.23-3.43-6.23-6.69-7.75l.08-5V91s-1-24,4-40q.23-.73.48-1.5h51ZM183.14,82a17,17,0,1,0-17,17A17,17,0,0,0,183.14,82Z"/><path class="cls-7" d="M173.71,66.78a17,17,0,1,1-19.92,26.89l3.85-2.17c18,1,16-21,16-21Z"/><path class="cls-8" d="M173.71,66.78l-.07,3.72s2,22-16,21l-3.85,2.17a17,17,0,0,1,19.92-26.89Z"/><path class="cls-6" d="M162.92,3.07a9.77,9.77,0,0,1,5.22-1.57,8.25,8.25,0,0,1,1.85.2l-.35,1.8s-15,44-8,44v2h-21C145.75,33.37,156.13,5.54,162.92,3.07Z"/><polygon class="cls-3" points="153.14 239 159.14 251 131.64 251 131.64 249.5 138.32 239 153.14 239"/><path class="cls-4" d="M114.14,254h42c-.49,12.81-1.45,24.35-2.72,34.71l-1.78-.21s-14,25-18,29-18.74-29.6-19.18-30.59h0a254.62,254.62,0,0,1-.32-29.9Z"/><path class="cls-5" d="M151.64,288.5l1.78.21C146.88,342.24,132.14,364,132.14,364c-12.08-25.81-16.32-55.53-17.68-77.09.44,1,15.24,34.53,19.18,30.59S151.64,288.5,151.64,288.5Z"/><path class="cls-2" d="M145.14,234v2.5h-10.5v-3s1-32,1-39,7.11-5.71,7.11-5.71A36.26,36.26,0,0,1,145.14,201Z"/><polygon class="cls-6" points="138.32 239 131.64 249.5 131.64 251 109.14 251 119.14 239 138.32 239"/><path class="cls-2" d="M136.14,95.89V176l-.08,5a11.18,11.18,0,0,0-4.47-1l0-1.51v-77l-1.07-.39A54.09,54.09,0,0,1,136.14,95.89Z"/><path class="cls-1" d="M131.64,101.5v77l0,1.51h-.45c-14,0-12,20-12,20v36.5H77.64s-11-17,9-34,29-26,29-37-4-39,5-52a104,104,0,0,1,9.93-12.39Z"/><path class="cls-9" d="M200.14,96.71a64.08,64.08,0,0,1,5.29,5.17,105.75,105.75,0,0,1,9.21,11.62c9,13,5,41,5,52s9,20,29,37,9,34,9,34h-85"/><path class="cls-9" d="M136.14,95.89a54.09,54.09,0,0,0-5.57,5.22,104,104,0,0,0-9.93,12.39c-9,13-5,41-5,52s-9,20-29,37-9,34-9,34h95"/><path class="cls-10" d="M162.92,3.07a9.77,9.77,0,0,1,5.22-1.57,8.25,8.25,0,0,1,1.85.2,10,10,0,0,1,3.37,1.37"/><path class="cls-10" d="M173.14,3l.22.07c6.79,2.47,17.17,30.3,22.3,46.43q.26.77.48,1.5c5,16,4,40,4,40v89"/><path class="cls-10" d="M217.14,234V200a32.21,32.21,0,0,0-1.07-11.14c-1.41-4.59-4.46-8.86-10.93-8.86h-.48a11.38,11.38,0,0,0-4.14.89c-5.43,2.33-7.71,8.69-8.68,13.64a37.63,37.63,0,0,0-.7,6.46v33"/><polygon class="cls-10" points="207.14 239 217.14 239 227.14 251 201.28 251 177.14 251 183.14 239 207.14 239"/><path class="cls-10" d="M184,297.25A400.93,400.93,0,0,1,180.14,254h42v3a249.83,249.83,0,0,1-.18,27.58c-1.2,21.71-5.3,52.67-17.82,79.42,0,0-13.16-19.43-20.13-66.73Z"/><path class="cls-10" d="M163.14,3l-.22.07c-6.79,2.47-17.17,30.3-22.3,46.43q-.26.77-.48,1.5c-5,16-4,40-4,40v85l-.08,5"/><path class="cls-10" d="M119.14,234V200s-2-20,12-20h.45a11.18,11.18,0,0,1,4.47,1c3.26,1.52,5.35,4.52,6.69,7.75A36.26,36.26,0,0,1,145.14,201v33"/><polygon class="cls-10" points="138.32 239 119.14 239 109.14 251 131.64 251 159.14 251 153.14 239 138.32 239"/><path class="cls-10" d="M153.42,288.71c1.27-10.36,2.23-21.9,2.72-34.71h-42v3a254.62,254.62,0,0,0,.32,29.9h0c1.36,21.56,5.6,51.28,17.68,77.09C132.14,364,146.88,342.24,153.42,288.71Z"/><polyline class="cls-10" points="195.66 49.5 191.64 49.5 161.64 49.5 140.62 49.5"/><path class="cls-11" d="M173.71,66.78A17,17,0,1,1,166.14,65,17,17,0,0,1,173.71,66.78Z"/><path class="cls-11" d="M321.64,153.5s15.77,3.5,15.41,13.1c-.08,2.27-1.08,4.9-3.41,7.9-7,9-12,9-12,9h-58s-14.55-2.91-15.72-16.8a25.56,25.56,0,0,1,.72-8.2c7-13,15-13,15-13s5-23,25-23c16.55,0,26.93,9.58,30,22.52a35.68,35.68,0,0,1,1,8.48c0,13-2,7-2,7"/><rect class="cls-12" x="185.64" y="91.5" width="4" height="47" rx="1.5"/><circle class="cls-13" cx="160.64" cy="79.5" r="4.5"/><rect class="cls-12" x="185.64" y="145.5" width="4" height="9" rx="1.5"/><rect class="cls-12" x="94.64" y="243.5" width="5" height="35" rx="1.5"/><rect class="cls-12" x="94.64" y="281.5" width="5" height="12" rx="1.5"/><rect class="cls-12" x="84.64" y="243.5" width="5" height="14" rx="1.5"/><rect class="cls-12" x="238.64" y="243.5" width="5" height="35" rx="1.5"/><path class="cls-12" d="M315,164.91l.81,1.83a1.57,1.57,0,0,1-.7,2l-4.32,2.13a1.4,1.4,0,0,1-1.91-.73l-.81-1.83a1.55,1.55,0,0,1,.7-2l4.32-2.14A1.41,1.41,0,0,1,315,164.91Z"/><rect class="cls-12" x="252.64" y="245.5" width="5" height="14" rx="1.5"/><path class="cls-1" d="M74.8,72.48h2S92.57,76,92.21,85.58l-4.41,2.9a90.74,90.74,0,0,1-16,6c-8,2-9-9-9-9L61.11,83A19.35,19.35,0,0,0,69.8,69.48l2-5,2-.48A35.68,35.68,0,0,1,74.8,72.48Z"/><path class="cls-2" d="M87.8,88.48l4.41-2.9c-.08,2.27-1.08,4.9-3.41,7.9-7,9-12,9-12,9h-58S4.25,99.57,3.08,85.68l2.72-.2s10,12,16,8l9-6S49.48,90.68,61.11,83l1.69,2.44s1,11,9,9A90.74,90.74,0,0,0,87.8,88.48Z"/><path class="cls-1" d="M73.81,64l-2,.48-2,5A19.35,19.35,0,0,1,61.11,83C49.48,90.68,30.8,87.48,30.8,87.48l-9,6c-6,4-16-8-16-8l-2.72.2a25.56,25.56,0,0,1,.72-8.2c7-13,15-13,15-13s5-23,25-23C60.35,41.48,70.73,51.06,73.81,64Z"/><path class="cls-14" d="M5.8,85.48s10,12,16,8l9-6S49.48,90.68,61.11,83A19.35,19.35,0,0,0,69.8,69.48l2-5"/><path class="cls-11" d="M76.8,72.48S92.57,76,92.21,85.58c-.08,2.27-1.08,4.9-3.41,7.9-7,9-12,9-12,9h-58S4.25,99.57,3.08,85.68a25.56,25.56,0,0,1,.72-8.2c7-13,15-13,15-13s5-23,25-23c16.55,0,26.93,9.58,30,22.52a35.68,35.68,0,0,1,1,8.48c0,13-2,7-2,7"/><path class="cls-14" d="M61.11,83l1.69,2.44s1,11,9,9a90.74,90.74,0,0,0,16-6l4.41-2.9h0"/></g></g></svg>