<svg xmlns="http://www.w3.org/2000/svg" viewBox="0 0 190.04 367.03"><defs><style>.cls-1{fill:#697b91;}.cls-2{fill:#f7ecaa;}.cls-3{fill:#eadd94;}.cls-4{fill:#b8d2e0;}.cls-5{fill:#909b9e;}.cls-6{fill:#e4eff7;}.cls-7{fill:#e67c89;}.cls-8{fill:#fa96a2;}.cls-10,.cls-11,.cls-9{fill:none;stroke:#335b77;stroke-miterlimit:10;}.cls-9{stroke-width:4px;}.cls-10{stroke-width:3px;}.cls-11{stroke-width:6px;}.cls-12{fill:#335b77;}.cls-13{fill:#fcbdc4;}</style></defs><title>rocket</title><g id="Layer_2" data-name="Layer 2"><g id="Layer_3" data-name="Layer 3"><polygon class="cls-1" points="144.52 239 154.52 251 128.66 251 134.52 239 144.52 239"/><path class="cls-2" d="M149.52,257a249.83,249.83,0,0,1-.18,27.58L148,284.5s-15,32-19,36S111.78,298,111.39,297.27v0A400.93,400.93,0,0,1,107.52,254h42Z"/><path class="cls-3" d="M148,284.5l1.32.08c-1.2,21.71-5.3,52.67-17.82,79.42,0,0-13.16-19.43-20.13-66.73.39.77,13.69,27.17,17.63,23.23S148,284.5,148,284.5Z"/><path class="cls-4" d="M143.45,188.86A32.21,32.21,0,0,1,144.52,200v36.5h-10V195c0-8.5,6.5-6.5,6.5-6.5Z"/><polygon class="cls-5" points="134.52 239 128.66 251 104.52 251 110.52 239 134.52 239"/><path class="cls-6" d="M132.81,101.88A105.75,105.75,0,0,1,142,113.5c9,13,5,41,5,52s9,20,29,37,9,34,9,34h-40.5V200a32.21,32.21,0,0,0-1.07-11.14C142,184.27,139,180,132.52,180H132l0-.51v-77Z"/><path class="cls-4" d="M132.81,101.88l-.79.62v77l0,.51a11.38,11.38,0,0,0-4.14.89l-.38-.9V96.71A64.08,64.08,0,0,1,132.81,101.88Z"/><path class="cls-1" d="M100.74,3.07c6.79,2.47,17.17,30.3,22.3,46.43H89v-2c-7,0,8-44,8-44l.35-1.8A10,10,0,0,1,100.74,3.07Z"/><path class="cls-4" d="M119,194.5V49.5h4q.25.77.48,1.5c5,16,4,40,4,40v89l.38.9c-5.43,2.33-7.71,8.69-8.68,13.64Z"/><path class="cls-6" d="M119,194.5l.2,0a37.63,37.63,0,0,0-.7,6.46v35.5h-46V201a36.26,36.26,0,0,0-2.39-12.21c-1.34-3.23-3.43-6.23-6.69-7.75l.08-5V91s-1-24,4-40q.23-.73.48-1.5h51ZM110.52,82a17,17,0,1,0-17,17A17,17,0,0,0,110.52,82Z"/><path class="cls-7" d="M101.09,66.78A17,17,0,1,1,81.17,93.67L85,91.5c18,1,16-21,16-21Z"/><path class="cls-8" d="M101.09,66.78,101,70.5s2,22-16,21l-3.85,2.17a17,17,0,0,1,19.92-26.89Z"/><path class="cls-5" d="M90.3,3.07A9.77,9.77,0,0,1,95.52,1.5a8.25,8.25,0,0,1,1.85.2L97,3.5s-15,44-8,44v2H68C73.13,33.37,83.51,5.54,90.3,3.07Z"/><polygon class="cls-1" points="80.52 239 86.52 251 59.02 251 59.02 249.5 65.7 239 80.52 239"/><path class="cls-2" d="M41.52,254h42c-.49,12.81-1.45,24.35-2.72,34.71L79,288.5s-14,25-18,29-18.74-29.6-19.18-30.59h0a254.62,254.62,0,0,1-.32-29.9Z"/><path class="cls-3" d="M79,288.5l1.78.21C74.26,342.24,59.52,364,59.52,364c-12.08-25.81-16.32-55.53-17.68-77.09.44,1,15.24,34.53,19.18,30.59S79,288.5,79,288.5Z"/><path class="cls-4" d="M72.52,234v2.5H62v-3s1-32,1-39,7.11-5.71,7.11-5.71A36.26,36.26,0,0,1,72.52,201Z"/><polygon class="cls-5" points="65.7 239 59.02 249.5 59.02 251 36.52 251 46.52 239 65.7 239"/><path class="cls-4" d="M63.52,95.89V176l-.08,5A11.18,11.18,0,0,0,59,180L59,178.5v-77L58,101.11A54.09,54.09,0,0,1,63.52,95.89Z"/><path class="cls-6" d="M59,101.5v77L59,180h-.45c-14,0-12,20-12,20v36.5H5s-11-17,9-34,29-26,29-37-4-39,5-52A104,104,0,0,1,58,101.11Z"/><path class="cls-9" d="M127.52,96.71a64.08,64.08,0,0,1,5.29,5.17A105.75,105.75,0,0,1,142,113.5c9,13,5,41,5,52s9,20,29,37,9,34,9,34H100"/><path class="cls-9" d="M63.52,95.89A54.09,54.09,0,0,0,58,101.11,104,104,0,0,0,48,113.5c-9,13-5,41-5,52s-9,20-29,37-9,34-9,34h95"/><path class="cls-10" d="M90.3,3.07A9.77,9.77,0,0,1,95.52,1.5a8.25,8.25,0,0,1,1.85.2,10,10,0,0,1,3.37,1.37"/><path class="cls-10" d="M100.52,3l.22.07c6.79,2.47,17.17,30.3,22.3,46.43q.25.77.48,1.5c5,16,4,40,4,40v89"/><path class="cls-10" d="M144.52,234V200a32.21,32.21,0,0,0-1.07-11.14C142,184.27,139,180,132.52,180H132a11.38,11.38,0,0,0-4.14.89c-5.43,2.33-7.71,8.69-8.68,13.64a37.63,37.63,0,0,0-.7,6.46v33"/><polygon class="cls-10" points="134.52 239 144.52 239 154.52 251 128.66 251 104.52 251 110.52 239 134.52 239"/><path class="cls-10" d="M111.38,297.25A400.93,400.93,0,0,1,107.52,254h42v3a249.83,249.83,0,0,1-.18,27.58c-1.2,21.71-5.3,52.67-17.82,79.42,0,0-13.16-19.43-20.13-66.73Z"/><path class="cls-10" d="M90.52,3l-.22.07C83.51,5.54,73.13,33.37,68,49.5q-.25.77-.48,1.5c-5,16-4,40-4,40v85l-.08,5"/><path class="cls-10" d="M46.52,234V200s-2-20,12-20H59a11.18,11.18,0,0,1,4.47,1c3.26,1.52,5.35,4.52,6.69,7.75A36.26,36.26,0,0,1,72.52,201v33"/><polygon class="cls-10" points="65.7 239 46.52 239 36.52 251 59.02 251 86.52 251 80.52 239 65.7 239"/><path class="cls-10" d="M80.8,288.71c1.27-10.36,2.23-21.9,2.72-34.71h-42v3a254.62,254.62,0,0,0,.32,29.9h0c1.36,21.56,5.6,51.28,17.68,77.09C59.52,364,74.26,342.24,80.8,288.71Z"/><polyline class="cls-10" points="123.04 49.5 119.02 49.5 89.02 49.5 68 49.5"/><path class="cls-11" d="M101.09,66.78A17,17,0,1,1,93.52,65,17,17,0,0,1,101.09,66.78Z"/><rect class="cls-12" x="113.02" y="91.5" width="4" height="47" rx="1.5"/><circle class="cls-13" cx="88.02" cy="79.5" r="4.5"/><rect class="cls-12" x="113.02" y="145.5" width="4" height="9" rx="1.5"/><rect class="cls-12" x="166.02" y="243.5" width="5" height="35" rx="1.5"/><rect class="cls-12" x="180.02" y="245.5" width="5" height="14" rx="1.5"/></g></g></svg>