<svg xmlns="http://www.w3.org/2000/svg" viewBox="0 0 150.62 290.43"><defs><style>.cls-1{fill:#e4eff7;}.cls-2{fill:#73849b;}.cls-3{fill:#fcf3b3;}.cls-4{fill:#bfd9eb;}.cls-5{fill:#f2e796;}.cls-6{fill:#9aa8ad;}.cls-7{fill:#dc7985;}.cls-8{fill:#ef919c;}.cls-9{fill:none;stroke:#396182;stroke-linecap:round;stroke-linejoin:round;stroke-width:2px;}.cls-10{fill:#fcbdc4;}</style></defs><title>rocket</title><g id="Layer_2" data-name="Layer 2"><g id="rocket"><path class="cls-1" d="M143.82,166.33c4.38,7.41,5.85,15.46,5.8,23.91,0,2.22-1.53,2.34-3.21,2.34-4.95,0-9.9,0-14.86,0-4.66,0-9.32,0-14,0a12.6,12.6,0,0,0-5.24.9l-.4.13c-.25-.62-.48-1.25-.67-1.89a17.36,17.36,0,0,1-.81-6.11c.43-9.11.27-18.26.07-27.38a19.24,19.24,0,0,0-2-8.52,14.87,14.87,0,0,0-3.26-4.22c-1.4-1.27-3-3-5.17-2.84v-.3q0-31.4,0-62.79a9.35,9.35,0,0,1,.56-3.8c.14-.32.52-.5.52-1l.39.09A3.7,3.7,0,0,1,104.18,76C111.57,82.41,117,90,118.48,99.91a100,100,0,0,1,.84,15.74,66.85,66.85,0,0,0,3.13,22.17,37.44,37.44,0,0,0,8.53,14C135.44,156.46,140.45,160.64,143.82,166.33Z"/><path class="cls-2" d="M113.82,197.5c1.12,2.1,2.9,3.92.89,6.47l-.34-.33a111.24,111.24,0,0,0-16.12-.21l0-1.23,3-9v-.56h0c1.86,0,3.71-.07,5.57-.07a6.14,6.14,0,0,0,3.5-.58l1-.31c.19.64.42,1.27.67,1.89A40.35,40.35,0,0,0,113.82,197.5Z"/><path class="cls-3" d="M114.66,206.26a199.43,199.43,0,0,1-3,38.74c-.24,1.44-.48,2.89-.73,4.33l-.72-.13s-7,9-10,13-11-13-11-13l-.74.13c-.41-2.31-.79-4.63-1.16-7A185,185,0,0,1,85,206.26a4.44,4.44,0,0,0-.26-1.84l.51-.2c1.18-.74,2.5-.52,3.79-.59,2.81-.15,5.64-.1,8.45-.18l.78,0a111.24,111.24,0,0,1,16.12.21l.34.33C114.33,204.45,114.63,205.49,114.66,206.26Z"/><path class="cls-4" d="M111.26,191.68l-1,.31a6.14,6.14,0,0,1-3.5.58c-1.86,0-3.71,0-5.57.07V153.2c0-7,6-4,6-4l1.31.47a19.24,19.24,0,0,1,2,8.52c.2,9.12.36,18.27-.07,27.38A17.36,17.36,0,0,0,111.26,191.68Z"/><path class="cls-5" d="M110.21,249.2l.72.13a284.39,284.39,0,0,1-8.47,35.9,7.44,7.44,0,0,1-2.66,4.07h0l-.27.12a2,2,0,0,0-.33-.41c-1.73-1.71-2.29-3.87-3-6.12a306.92,306.92,0,0,1-7.78-33.57l.74-.13s8,17,11,13S110.21,249.2,110.21,249.2Z"/><path class="cls-1" d="M108.52,149.67l-1.31-.47s-6-3-6,4v39.44h0a83.72,83.72,0,0,1-8.39-.17,15.18,15.18,0,0,0-3.92,0l-.16-.75c-.57-9.8-.33-19.62-.23-29.42,0-5,.63-9.87,3.38-14.31A11.6,11.6,0,0,1,93,146.49a12.16,12.16,0,0,1,6.26-3.73,4.67,4.67,0,0,1,.87-.15c2.2-.15,3.77,1.57,5.17,2.84A14.87,14.87,0,0,1,108.52,149.67Z"/><path class="cls-6" d="M101.2,192.64v.56l-3,9,0,1.23-.78,0c-2.81.08-5.64,0-8.45.18-1.29.07-2.61-.15-3.79.59l-.51.2a3.8,3.8,0,0,0-1.24-1.65h-.59a1.26,1.26,0,0,0,.39-1.16,3.79,3.79,0,0,1,1.34-2.94c.62-.53,1.39-1.31,1.42-2a5.69,5.69,0,0,1,.81-3,3.06,3.06,0,0,1,2-1.24,15.18,15.18,0,0,1,3.92,0A83.72,83.72,0,0,0,101.2,192.64Z"/><path class="cls-4" d="M101,74.25a1.23,1.23,0,0,1,.14.52c0,.45-.38.63-.52,1a9.35,9.35,0,0,0-.56,3.8q0,31.4,0,62.79v.3a4.67,4.67,0,0,0-.87.15A12.16,12.16,0,0,0,93,146.49l-.75-.29s3-84,2-89-6-11-6-11l-4-7v-.75h7.43a8.46,8.46,0,0,0,3.2-.6l1-.22c.34,1.56.71,3.11,1.17,4.65a69.39,69.39,0,0,1,3.18,20.92C100.07,66.9,99.32,70.73,101,74.25Z"/><path class="cls-2" d="M95.8,37.64l-1,.22a8.46,8.46,0,0,1-3.2.6H75.21V37.2c-12,0,2-35,2-35l.36-.68a13,13,0,0,1,3.29,2.25c3.41,3.05,5.46,7,7.24,11.1,2,4.47,3.58,9.09,5.28,13.67A73,73,0,0,1,95.8,37.64Z"/><path class="cls-1" d="M94.21,57.2c1,5-2,89-2,89l.75.29A11.6,11.6,0,0,0,91.88,148c-2.75,4.44-3.33,9.36-3.38,14.31-.1,9.8-.34,19.62.23,29.42l.16.75a3.06,3.06,0,0,0-2,1.24l-.45-.24a6.67,6.67,0,0,0-2.92-.88H64.25a6.59,6.59,0,0,0-2.91.88l-.58.21c-.11-.29-.21-.58-.31-.87a19.21,19.21,0,0,1-1-6.33c.16-8.83.26-17.67-.13-26.52-.21-4.65-1.14-8.82-3.46-12.19a16.44,16.44,0,0,0-5.74-5.09l.11-.19c0-.6.12-1.19.18-1.78a16.53,16.53,0,0,0,.1-1.72q0-29.72,0-59.44a9,9,0,0,0-.89-4.37l-1.39-.22a6.52,6.52,0,0,0,2.28-5.31c.11-3.69-.18-7.38.22-11.08.49-4.41,1.28-8.76,2.11-13.1a74.45,74.45,0,0,1,2.28-7.87l.91.29c.86.74,1.9.58,2.91.58h25.2v.75l4,7S93.21,52.2,94.21,57.2ZM85.57,74.33A13.54,13.54,0,0,0,87.2,58.19a14.57,14.57,0,0,0-7.81-6.32c-2-.72-4.26-.22-6.4-.32H72.7C67.55,53,63.83,56,62.24,61.18a13.1,13.1,0,0,0,5.19,15.18,14,14,0,0,0,1.22.78C74.74,80.63,81.38,78.88,85.57,74.33Z"/><path class="cls-7" d="M87.2,58.19a13.54,13.54,0,0,1-1.63,16.14c-4.19,4.55-10.83,6.3-16.92,2.81a14,14,0,0,1-1.22-.78l.2-.3S88.8,69.37,86.8,58.45Z"/><path class="cls-8" d="M87.2,58.19l-.4.26c2,10.92-19.17,17.61-19.17,17.61l-.2.3a13.1,13.1,0,0,1-5.19-15.18C63.83,56,67.55,53,72.7,51.55H73c2.14.1,4.35-.4,6.4.32A14.57,14.57,0,0,1,87.2,58.19Z"/><path class="cls-6" d="M77.57,1.52l-.36.68s-14,35-2,35v1.24H59c-1,0-2,.16-2.91-.58l-.91-.29a35.72,35.72,0,0,0,1.25-4.94c.85-5.18,3-10,4.93-14.86,2.05-5.09,4.36-10.14,8.45-14C72.57,1.24,74.86.33,77.57,1.52Z"/><path class="cls-2" d="M62.54,197.5c1.14,2.1,2.93,3.94.88,6.46l-.33-.32a114.89,114.89,0,0,0-15.85-.24l0-1.2c-2-1,2-9,2-9v-.67c1,0,2.08,0,3.11,0,2.63.13,5.31-.28,7.9.29l.24-.08c.1.29.2.58.31.87A28.38,28.38,0,0,0,62.54,197.5Z"/><path class="cls-3" d="M63.09,203.64l.33.32c-.29.35-.05,1.14,0,1.72a228.87,228.87,0,0,1-3.87,43.76l-1.3-.24s-6,10-9,14-11.76-13.53-11.76-13.53l-.23,0a201.74,201.74,0,0,1-3.51-44,2.78,2.78,0,0,0-.21-1.24l.45-.22c1.09-.69,2.3-.53,3.5-.59,2.72-.13,5.45-.12,8.16-.19l1.63,0A114.89,114.89,0,0,1,63.09,203.64Z"/><path class="cls-4" d="M60.45,192.78l-.24.08c-2.59-.57-5.27-.16-7.9-.29-1,0-2.07-.06-3.11,0l-1,0,0-1.35s-1-35,0-41,7-2,7-2l.69-.46c2.32,3.37,3.25,7.54,3.46,12.19.39,8.85.29,17.69.13,26.52A19.21,19.21,0,0,0,60.45,192.78Z"/><path class="cls-5" d="M58.21,249.2l1.3.24q-1.11,6.1-2.47,12.19c-1.77,7.92-3.7,15.78-5.87,23.59-.5,1.78-1.14,3.31-2.94,4.08l0,.12-.41-.07c-2.58-3.82-3.39-8.1-4.48-12.3-2.33-9.07-4.44-18.18-6.1-27.34l.23,0s8.76,17.53,11.76,13.53S58.21,249.2,58.21,249.2Z"/><path class="cls-1" d="M55.9,147.74l-.69.46s-6-4-7,2,0,41,0,41l0,1.35c-3.62.08-7.26.29-10.8-.56l-.88-.26a16.18,16.18,0,0,0,.68-5.28c-.31-8.34-.08-16.7-.1-25.06a30,30,0,0,1,1.55-9.58A15.56,15.56,0,0,1,43.21,145,8,8,0,0,1,47,143.27l1.37-.29c.56-.12,1.12-.24,1.67-.41l.13.08A16.44,16.44,0,0,1,55.9,147.74Z"/><path class="cls-4" d="M50.58,79.52q0,29.73,0,59.44a16.53,16.53,0,0,1-.1,1.72h-.07a21.92,21.92,0,0,0-3-.15h-.21V75.81l.26-.2c.3-.23.58-.45.83-.68l1.39.22A9,9,0,0,1,50.58,79.52Z"/><path class="cls-1" d="M50.38,140.67h.07c-.06.59-.13,1.18-.18,1.78l-.11.19-.13-.08c-.55.17-1.11.29-1.67.41l-1.37.29A8,8,0,0,0,43.21,145a15.56,15.56,0,0,0-4.51,6.81,30,30,0,0,0-1.55,9.58c0,8.36-.21,16.72.1,25.06a16.18,16.18,0,0,1-.68,5.28,18.87,18.87,0,0,1-.68,1.91l-.48-.2a12.82,12.82,0,0,0-5.24-.9c-8.65.06-17.29,0-25.93.06-2.37,0-3.43-.88-3.21-3.24.2-2.13.33-4.28.59-6.41.84-6.85,2.72-13.33,7-18.94a75.18,75.18,0,0,1,8.76-9.59c10-9.31,14-21,14-34.4,0-7.11,0-14.25,1.22-21.26,1.69-9.63,7-17.23,14.66-23v64.71c-1.41,0,.76.18,2.5.18A2.67,2.67,0,0,0,50.38,140.67Z"/><path class="cls-6" d="M49.2,192.53v.67s-4,8-2,9l0,1.2-1.63,0c-2.71.07-5.44.06-8.16.19-1.2.06-2.41-.1-3.5.59l-.45.22a4.55,4.55,0,0,0-.94-1.29,10,10,0,0,0-.65-.81,1.73,1.73,0,0,0,.05-.75c-.17-1.48,1-2.59,1.75-3.75a31.1,31.1,0,0,0,2.18-4.2,18.87,18.87,0,0,0,.68-1.91l.88.26c3.54.85,7.18.64,10.8.56Z"/><path class="cls-9" d="M101.55,74.86A3.7,3.7,0,0,1,104.18,76C111.57,82.41,117,90,118.48,99.91a100,100,0,0,1,.84,15.74,66.85,66.85,0,0,0,3.13,22.17,37.44,37.44,0,0,0,8.53,14c4.46,4.68,9.47,8.86,12.84,14.55,4.38,7.41,5.85,15.46,5.8,23.91,0,2.22-1.53,2.34-3.21,2.34-4.95,0-9.9,0-14.86,0-4.66,0-9.32,0-14,0a12.6,12.6,0,0,0-5.24.9"/><path class="cls-9" d="M100.09,142.31q0-31.4,0-62.79a9.35,9.35,0,0,1,.56-3.8c.14-.32.52-.5.52-1a1.23,1.23,0,0,0-.14-.52c-1.7-3.52-1-7.35-.87-11A69.39,69.39,0,0,0,97,42.29c-.46-1.54-.83-3.09-1.17-4.65a73,73,0,0,0-2.42-9.1c-1.7-4.58-3.33-9.2-5.28-13.67-1.78-4.08-3.83-8-7.24-11.1a13,13,0,0,0-3.29-2.25c-2.71-1.19-5-.28-7.75,2.29-4.09,3.82-6.4,8.87-8.45,14-1.95,4.84-4.08,9.68-4.93,14.86a35.72,35.72,0,0,1-1.25,4.94,74.45,74.45,0,0,0-2.28,7.87c-.83,4.34-1.62,8.69-2.11,13.1-.4,3.7-.11,7.39-.22,11.08a6.52,6.52,0,0,1-2.28,5.31c-.25.23-.53.45-.83.68l-.26.2c-7.62,5.72-13,13.32-14.66,23-1.23,7-1.23,14.15-1.22,21.26,0,13.37-3.94,25.09-14,34.4A75.18,75.18,0,0,0,8.6,164c-4.26,5.61-6.14,12.09-7,18.94-.26,2.13-.39,4.28-.59,6.41-.22,2.36.84,3.26,3.21,3.24,8.64-.08,17.28,0,25.93-.06a12.82,12.82,0,0,1,5.24.9"/><path class="cls-9" d="M48.36,143c.56-.12,1.12-.24,1.67-.41l.13.08a16.44,16.44,0,0,1,5.74,5.09c2.32,3.37,3.25,7.54,3.46,12.19.39,8.85.29,17.69.13,26.52a19.21,19.21,0,0,0,1,6.33c.1.29.2.58.31.87a28.38,28.38,0,0,0,1.78,3.85c1.14,2.1,2.93,3.94.88,6.46-.29.35-.05,1.14,0,1.72a228.87,228.87,0,0,1-3.87,43.76q-1.11,6.1-2.47,12.19c-1.77,7.92-3.7,15.78-5.87,23.59-.5,1.78-1.14,3.31-2.94,4.08"/><path class="cls-9" d="M31.91,202.34a1.73,1.73,0,0,0,.05-.75c-.17-1.48,1-2.59,1.75-3.75a31.1,31.1,0,0,0,2.18-4.2,18.87,18.87,0,0,0,.68-1.91"/><path class="cls-9" d="M88.73,191.69c-.57-9.8-.33-19.62-.23-29.42,0-5,.63-9.87,3.38-14.31A11.6,11.6,0,0,1,93,146.49a12.16,12.16,0,0,1,6.26-3.73,4.67,4.67,0,0,1,.87-.15c2.2-.15,3.77,1.57,5.17,2.84a14.87,14.87,0,0,1,3.26,4.22,19.24,19.24,0,0,1,2,8.52c.2,9.12.36,18.27-.07,27.38a17.36,17.36,0,0,0,.81,6.11c.19.64.42,1.27.67,1.89a40.35,40.35,0,0,0,1.89,3.93c1.12,2.1,2.9,3.92.89,6.47-.38.48-.08,1.52,0,2.29a199.43,199.43,0,0,1-3,38.74c-.24,1.44-.48,2.89-.73,4.33a284.39,284.39,0,0,1-8.47,35.9,7.44,7.44,0,0,1-2.66,4.07"/><path class="cls-9" d="M83.48,202.77a3.8,3.8,0,0,1,1.24,1.65,4.44,4.44,0,0,1,.26,1.84,185,185,0,0,0,2.33,36.12c.37,2.32.75,4.64,1.16,7a306.92,306.92,0,0,0,7.78,33.57c.66,2.25,1.22,4.41,3,6.12a2,2,0,0,1,.33.41"/><path class="cls-9" d="M32.56,203.15a4.55,4.55,0,0,1,.94,1.29,2.78,2.78,0,0,1,.21,1.24,201.74,201.74,0,0,0,3.51,44c1.66,9.16,3.77,18.27,6.1,27.34,1.09,4.2,1.9,8.48,4.48,12.3"/><path class="cls-9" d="M49.69,75.15a9,9,0,0,1,.89,4.37q0,29.73,0,59.44a16.53,16.53,0,0,1-.1,1.72c-.06.59-.13,1.18-.18,1.78"/><path class="cls-9" d="M94.84,37.86a8.46,8.46,0,0,1-3.2.6H59c-1,0-2,.16-2.91-.58"/><path class="cls-9" d="M89,85.93v30"/><path class="cls-9" d="M88.71,119.7v6"/><path class="cls-9" d="M63.09,203.64a114.89,114.89,0,0,0-15.85-.24l-1.63,0c-2.71.07-5.44.06-8.16.19-1.2.06-2.41-.1-3.5.59"/><path class="cls-9" d="M114.37,203.64a111.24,111.24,0,0,0-16.12-.21l-.78,0c-2.81.08-5.64,0-8.45.18-1.29.07-2.61-.15-3.79.59"/><path class="cls-9" d="M86.4,193.44a6.67,6.67,0,0,0-2.92-.88H64.25a6.59,6.59,0,0,0-2.91.88"/><path class="cls-9" d="M133.16,203.35q.36,10,0,20"/><path class="cls-9" d="M17.64,203.35V220.7"/><path class="cls-9" d="M18.21,227.2v6"/><path class="cls-9" d="M133.71,229.7v6"/><path class="cls-9" d="M82.63,202.92a.87.87,0,0,0,.26-.16,1.26,1.26,0,0,0,.39-1.16,3.79,3.79,0,0,1,1.34-2.94c.62-.53,1.39-1.31,1.42-2a5.69,5.69,0,0,1,.81-3,3.06,3.06,0,0,1,2-1.24,15.18,15.18,0,0,1,3.92,0,83.72,83.72,0,0,0,8.39.17h0c1.86,0,3.71-.07,5.57-.07a6.14,6.14,0,0,0,3.5-.58"/><path class="cls-9" d="M37.45,192c3.54.85,7.18.64,10.8.56l1,0c1,0,2.08,0,3.11,0,2.63.13,5.31-.28,7.9.29"/><path class="cls-9" d="M144.23,203.35q.08,6.12.14,12.23"/><path class="cls-9" d="M6.57,203.35v12.23"/><path class="cls-9" d="M72.7,51.55C67.55,53,63.83,56,62.24,61.18a13.1,13.1,0,0,0,5.19,15.18,14,14,0,0,0,1.22.78c6.09,3.49,12.73,1.74,16.92-2.81A13.54,13.54,0,0,0,87.2,58.19a14.57,14.57,0,0,0-7.81-6.32c-2-.72-4.26-.22-6.4-.32"/><circle class="cls-10" cx="70.21" cy="64.2" r="4"/></g></g></svg>