<svg xmlns="http://www.w3.org/2000/svg" viewBox="0 0 44 44"><defs><style>.cls-1{fill:#d9dce1;}.cls-2{fill:#56aaff;}</style></defs><title>Web500x</title><g id="Layer_2" data-name="Layer 2"><g id="web_drwng"><circle class="cls-1" cx="22" cy="22" r="22"/><path class="cls-2" d="M43.06,15.61a21.85,21.85,0,0,1,.85,4.46C42.74,21,38.05,20.18,40,27c0,3-1,4-1,4s-4,3-5,1-4-3-6-3-6,0-6-2-1-5,3-7,11,1,12-1,4-5-2-2c-1,1-6-2-6,0s-3,1-3,1-3,0-2-2,3,0,3-2-1-3,1-4c1.24-.62,2.1-.86,2.33-1.42S29.83,7.67,30,7c0-.18.18-.5,1-1a5.5,5.5,0,0,1,3-1,5.24,5.24,0,0,1,3.19,1.09l.07.06a22.23,22.23,0,0,1,3.41,4.2A21.78,21.78,0,0,1,43.06,15.61Z"/><path class="cls-2" d="M13.13,1.86C18.18.26,24,5.08,22,8S21,6,18.9,6s-1,6-2.06,6-2.05-1-3.08-1,1,3-1,3a19.43,19.43,0,0,0-7.2,2c-.34.16-.48.36-.48.56l-1.68-.1A4.85,4.85,0,0,0,2,13a.21.21,0,0,1,0-.06H2A21.17,21.17,0,0,1,4.34,8.87l0,0a22.15,22.15,0,0,1,8.72-6.95A.05.05,0,0,1,13.13,1.86Z"/><path class="cls-2" d="M14.79,26c.07.56-.89.87-2.06,2a10.6,10.6,0,0,0-2.06,3c-1.36,3,0,5.35-1,6-.42.25-1.25.27-3.08-1A15.4,15.4,0,0,1,3,33l0,0a22.47,22.47,0,0,1-1.32-2.7A21.81,21.81,0,0,1,0,22c0-.34,0-.68,0-1a4.52,4.52,0,0,0,2.73-2,5.46,5.46,0,0,0,.61-2.5l1.68.1c0,1,3.73,2.44,4.59,2.44,1,0,2.06,2,2.06,2a3.43,3.43,0,0,0,0,3C12.56,25.34,14.68,25.17,14.79,26Z"/></g></g></svg>